<svg xmlns="http://www.w3.org/2000/svg" width="49.996" height="49.996" viewBox="0 0 49.996 49.996">
  <path id="Trazado_224" data-name="Trazado 224" d="M37.6,50H12.4a12.491,12.491,0,0,1-2.5-.252,12.332,12.332,0,0,1-4.434-1.866A12.436,12.436,0,0,1,.974,42.422a12.337,12.337,0,0,1-.723-2.328A12.491,12.491,0,0,1,0,37.6V12.4A12.491,12.491,0,0,1,.252,9.9,12.332,12.332,0,0,1,2.118,5.467,12.436,12.436,0,0,1,7.573.974,12.337,12.337,0,0,1,9.9.252,12.491,12.491,0,0,1,12.4,0H37.6a12.491,12.491,0,0,1,2.5.252,12.332,12.332,0,0,1,4.434,1.866,12.436,12.436,0,0,1,4.492,5.456A12.338,12.338,0,0,1,49.744,9.9,12.491,12.491,0,0,1,50,12.4V37.6a12.491,12.491,0,0,1-.252,2.5,12.332,12.332,0,0,1-1.866,4.434,12.436,12.436,0,0,1-5.456,4.492,12.337,12.337,0,0,1-2.328.723A12.491,12.491,0,0,1,37.6,50ZM8.035,19.542V32.469a5,5,0,0,0,5,5H36.929a5,5,0,0,0,5-5V19.542L25.964,29.267a1.927,1.927,0,0,1-2,0Zm5-7.043a4.9,4.9,0,0,0-1.685.3A4.982,4.982,0,0,0,8.2,16.421L25,26.666,41.772,16.421a4.919,4.919,0,0,0-.627-1.558,5,5,0,0,0-2.53-2.066,4.9,4.9,0,0,0-1.685-.3Z" fill="#fff"/>
</svg>
