<svg xmlns="http://www.w3.org/2000/svg" width="49.996" height="49.996" viewBox="0 0 49.996 49.996">
  <path id="Trazado_223" data-name="Trazado 223" d="M37.6,50H12.4a12.491,12.491,0,0,1-2.5-.252,12.332,12.332,0,0,1-4.434-1.866A12.436,12.436,0,0,1,.974,42.422a12.337,12.337,0,0,1-.723-2.328A12.491,12.491,0,0,1,0,37.6V12.4A12.491,12.491,0,0,1,.252,9.9,12.332,12.332,0,0,1,2.118,5.467,12.436,12.436,0,0,1,7.573.974,12.337,12.337,0,0,1,9.9.252,12.491,12.491,0,0,1,12.4,0H37.6a12.491,12.491,0,0,1,2.5.252,12.332,12.332,0,0,1,4.434,1.866,12.436,12.436,0,0,1,4.492,5.456A12.338,12.338,0,0,1,49.744,9.9,12.491,12.491,0,0,1,50,12.4V37.6a12.491,12.491,0,0,1-.252,2.5,12.332,12.332,0,0,1-1.866,4.434,12.436,12.436,0,0,1-5.456,4.492,12.337,12.337,0,0,1-2.328.723A12.491,12.491,0,0,1,37.6,50ZM25.029,22.525c-2.2,0-4.151.03-5.8.089s-3.028.15-4.114.268a3.245,3.245,0,0,0-1.842.841,3.42,3.42,0,0,0-.653.8,3.525,3.525,0,0,0-.385.97,18.549,18.549,0,0,0-.349,2.6c-.077,1.039-.116,2.269-.116,3.658,0,1.412.039,2.655.116,3.693a17.48,17.48,0,0,0,.349,2.567,3.376,3.376,0,0,0,.374.97,3.413,3.413,0,0,0,1.511,1.364,3.181,3.181,0,0,0,.977.259c1.092.125,2.481.219,4.127.282s3.6.094,5.8.094,4.153-.032,5.8-.094,3.035-.157,4.127-.282a3.157,3.157,0,0,0,.975-.259,3.257,3.257,0,0,0,.85-.563,3.412,3.412,0,0,0,.653-.8,3.526,3.526,0,0,0,.384-.97,18.552,18.552,0,0,0,.349-2.6c.077-1.039.116-2.269.116-3.658,0-1.412-.039-2.655-.116-3.694a17.5,17.5,0,0,0-.349-2.567,3.367,3.367,0,0,0-.373-.97,3.322,3.322,0,0,0-.655-.8,3.415,3.415,0,0,0-.856-.568,3.284,3.284,0,0,0-.977-.273c-1.092-.119-2.48-.209-4.127-.268S27.231,22.525,25.029,22.525ZM28.374,11.99v7.047a4.617,4.617,0,0,0,.143,1.341.929.929,0,0,0,.38.5,1.257,1.257,0,0,0,.675.166,1.762,1.762,0,0,0,.908-.277,3.963,3.963,0,0,0,.934-.832v.984h1.628V11.99H31.415V18.8a2.546,2.546,0,0,1-.523.577.833.833,0,0,1-.5.192.337.337,0,0,1-.255-.1.52.52,0,0,1-.121-.3A4.705,4.705,0,0,1,30,18.554V11.99Zm-3.72-.107a2.427,2.427,0,0,0-1.069.228,2.218,2.218,0,0,0-.809.684,2.292,2.292,0,0,0-.375.854,5.4,5.4,0,0,0-.125,1.239v3.13a5.462,5.462,0,0,0,.125,1.243,2.381,2.381,0,0,0,.376.867,2.219,2.219,0,0,0,.809.684,2.427,2.427,0,0,0,1.069.228,2.5,2.5,0,0,0,1.091-.228,2.137,2.137,0,0,0,.8-.684,2.291,2.291,0,0,0,.376-.859,5.508,5.508,0,0,0,.125-1.252v-3.13a5.4,5.4,0,0,0-.125-1.239,2.294,2.294,0,0,0-.375-.854,2.137,2.137,0,0,0-.8-.684A2.5,2.5,0,0,0,24.654,11.883Zm-8.6-2.951c.332,1,.723,2.121,1.163,3.345A30.462,30.462,0,0,1,18.3,16.068v4.847h1.789V16.068l2.164-7.137H20.433l-1.216,4.7-1.27-4.7ZM33.954,37.6a2.558,2.558,0,0,1-1.1-.228,2.237,2.237,0,0,1-1.221-1.534,5.125,5.125,0,0,1-.13-1.225V31.521a5.3,5.3,0,0,1,.125-1.225,2.177,2.177,0,0,1,1.2-1.534,2.508,2.508,0,0,1,1.087-.228,2.457,2.457,0,0,1,1.073.228,2.278,2.278,0,0,1,.822.684,2.329,2.329,0,0,1,.362.85,5.487,5.487,0,0,1,.121,1.225v1.842H33.1V34.92a1.691,1.691,0,0,0,.206.925.7.7,0,0,0,.617.308.685.685,0,0,0,.474-.161.848.848,0,0,0,.241-.483,8.931,8.931,0,0,0,.036-1.091H36.3v.232a7.951,7.951,0,0,1-.036,1.038,2.176,2.176,0,0,1-.376.966,2.073,2.073,0,0,1-.805.711A2.542,2.542,0,0,1,33.954,37.6ZM33.9,29.983a.678.678,0,0,0-.6.3,1.676,1.676,0,0,0-.2.912v.823h1.61V31.2a1.676,1.676,0,0,0-.2-.912A.678.678,0,0,0,33.9,29.983ZM28.822,37.6a1.651,1.651,0,0,1-.845-.246,3.194,3.194,0,0,1-.818-.737v.858H25.566V25.619h1.592V29.5a2.943,2.943,0,0,1,.8-.724,1.7,1.7,0,0,1,.863-.241,1.258,1.258,0,0,1,.8.25,1.474,1.474,0,0,1,.47.751,6.423,6.423,0,0,1,.16,1.771V34.83a6.642,6.642,0,0,1-.16,1.789,1.444,1.444,0,0,1-.47.737A1.274,1.274,0,0,1,28.822,37.6Zm-.859-7.619a1.155,1.155,0,0,0-.8.394V35.76a1.153,1.153,0,0,0,.8.393.57.57,0,0,0,.523-.3,1.836,1.836,0,0,0,.175-.9V31.182a1.837,1.837,0,0,0-.175-.9A.57.57,0,0,0,27.962,29.983ZM20.754,37.6a1.234,1.234,0,0,1-.671-.165.893.893,0,0,1-.367-.5,4.448,4.448,0,0,1-.143-1.306V28.642h1.592v6.51a4.951,4.951,0,0,0,.018.626.486.486,0,0,0,.121.282.346.346,0,0,0,.255.094.845.845,0,0,0,.5-.188,2.506,2.506,0,0,0,.523-.563V28.642h1.592v8.836H22.579v-.966a4.139,4.139,0,0,1-.939.818A1.732,1.732,0,0,1,20.754,37.6Zm-3.326-.125H15.639V27.3H13.761V25.619h5.58V27.3H17.428Zm7.226-17.9a.635.635,0,0,1-.577-.313,1.834,1.834,0,0,1-.192-.939V14.565a1.787,1.787,0,0,1,.192-.926.693.693,0,0,1,1.154,0,1.788,1.788,0,0,1,.192.926v3.756a1.835,1.835,0,0,1-.192.939A.635.635,0,0,1,24.654,19.573Z" fill="#fff"/>
</svg>
